<?xml version="1.0" standalone="no"?><!DOCTYPE svg PUBLIC "-//W3C//DTD SVG 1.1//EN" "http://www.w3.org/Graphics/SVG/1.1/DTD/svg11.dtd"><svg t="1684220043975" class="icon" viewBox="0 0 1024 1024" version="1.1" xmlns="http://www.w3.org/2000/svg" p-id="19209" xmlns:xlink="http://www.w3.org/1999/xlink" width="200" height="200"><path d="M988.416 821.216l1.504-0.576-101.504-267.328A64.32 64.32 0 0 0 828.608 512h-20.608V112a32 32 0 1 0-64 0V512H544V112a32 32 0 1 0-64 0V512H272V112a32 32 0 0 0-64 0V512h-12.608a64.32 64.32 0 0 0-59.84 41.312l-101.472 267.328 1.504 0.576c-2.112 8.64-3.584 17.504-3.584 26.784C32 909.76 82.24 960 144 960h736c61.76 0 112-50.24 112-112 0-9.28-1.472-18.144-3.584-26.784zM195.392 576h633.184l61.12 160.992c-3.232-0.288-6.368-0.992-9.696-0.992h-736c-3.328 0-6.464 0.704-9.696 0.992L195.392 576zM880 896h-736c-26.464 0-48-21.536-48-48S117.536 800 144 800h736c26.464 0 48 21.536 48 48s-21.536 48-48 48z" p-id="19210" fill="#1296db"></path></svg>